<svg id="social-logo-slack" width="32" height="32" viewBox="0 0 32 32" fill="none"><path fill-rule="evenodd" clip-rule="evenodd" d="M16 0C24.837 0 32 7.16344 32 16C32 24.8366 24.837 32 16 32C7.163 32 0 24.8366 0 16C0 7.16344 7.163 0 16 0ZM13.898 11.3631C12.968 11.3631 12.217 10.6115 12.217 9.68153C12.217 8.75159 12.968 8 13.898 8C14.828 8 15.58 8.75159 15.58 9.68153V11.3631H13.898ZM9.694 19.7962C10.624 19.7962 11.376 19.0446 11.376 18.1146V16.4331H9.694C8.764 16.4331 8.013 17.1847 8.013 18.1146C8.013 19.0446 8.764 19.7962 9.694 19.7962ZM13.898 16.4332C12.968 16.4332 12.217 17.1848 12.217 18.1147V22.3185C12.217 23.2485 12.968 24 13.898 24C14.828 24 15.58 23.2485 15.58 22.3185V18.1147C15.58 17.1848 14.828 16.4332 13.898 16.4332ZM15.58 13.8981C15.58 12.9681 14.828 12.2166 13.898 12.2166H9.68201C8.75201 12.2166 8 12.9681 8 13.8981C8 14.828 8.75201 15.5796 9.68201 15.5796H13.898C14.828 15.5796 15.58 14.828 15.58 13.8981ZM20.637 13.8981C20.637 12.9681 21.389 12.2166 22.319 12.2166C23.249 12.2166 24 12.9681 24 13.8981C24 14.828 23.249 15.5796 22.319 15.5796H20.637V13.8981ZM18.115 15.5796C19.045 15.5796 19.796 14.828 19.796 13.8981V9.68153C19.796 8.75159 19.045 8 18.115 8C17.185 8 16.433 8.75159 16.433 9.68153V13.8981C16.433 14.828 17.185 15.5796 18.115 15.5796ZM18.115 20.637C19.045 20.637 19.796 21.3886 19.796 22.3185C19.796 23.2484 19.045 24 18.115 24C17.185 24 16.433 23.2484 16.433 22.3185V20.637H18.115ZM16.433 18.1146C16.433 19.0446 17.185 19.7962 18.115 19.7962H22.331C23.261 19.7962 24.013 19.0446 24.013 18.1146C24.013 17.1847 23.261 16.4331 22.331 16.4331H18.115C17.185 16.4331 16.433 17.1847 16.433 18.1146Z" fill="currentColor"></path></svg>