<svg id="social-logo-linkedin" width="32" height="32" viewBox="0 0 32 32" fill="none"><path fill-rule="evenodd" clip-rule="evenodd" d="M16 0C7.16344 0 0 7.16344 0 16C0 24.8366 7.16344 32 16 32C24.8366 32 32 24.8366 32 16C32 7.16344 24.8366 0 16 0ZM7.68109 13.2518H11.307V24.1462H7.68109V13.2518ZM11.5459 9.88149C11.5223 8.81329 10.7585 7.99969 9.51804 7.99969C8.27762 7.99969 7.46668 8.81329 7.46668 9.88149C7.46668 10.9276 8.25365 11.7646 9.47097 11.7646H9.49414C10.7585 11.7646 11.5459 10.9276 11.5459 9.88149ZM20.2088 12.9958C22.5949 12.9958 24.3837 14.5533 24.3837 17.8996L24.3835 24.1461H20.7577V18.3176C20.7577 16.8536 20.233 15.8546 18.9204 15.8546C17.9186 15.8546 17.322 16.5281 17.0599 17.1785C16.964 17.4117 16.9405 17.7365 16.9405 18.0621V24.1464H13.3141C13.3141 24.1464 13.3619 14.2742 13.3141 13.252H16.9405V14.7951C17.4218 14.0533 18.2837 12.9958 20.2088 12.9958Z" fill="currentColor"></path></svg>