<?xml version="1.0" encoding="utf-8"?>
<!-- Generator: Adobe Illustrator 26.5.0, SVG Export Plug-In . SVG Version: 6.00 Build 0)  -->
<svg version="1.1" id="Layer_1" xmlns="http://www.w3.org/2000/svg" xmlns:xlink="http://www.w3.org/1999/xlink" x="0px" y="0px"
	 viewBox="0 0 103 32" style="enable-background:new 0 0 103 32;" xml:space="preserve">
<style type="text/css">
	.st022{fill-rule:evenodd;clip-rule:evenodd;fill: var(--dark);}
</style>
<g>
	<path class="st022" d="M44.7,4.1v4.1h-3.9V4.1H44.7z M40.8,10.5h3.7v15.1h-3.7V10.5z"/>
	<path class="st022" d="M52.7,6v4.6h4.2v3.1h-4.2v6.6c0,0.8,0.2,1.3,0.6,1.7c0.4,0.4,0.9,0.6,1.6,0.6h2v3.1h-2.4c-1.1,0-2-0.2-2.9-0.6
		c-0.8-0.4-1.4-1-1.9-1.8c-0.4-0.8-0.7-1.7-0.7-2.8v-6.7h-3v-3.1h3V6H52.7z"/>
	<path class="st022" d="M60.6,25.3c-0.8-0.4-1.3-0.9-1.8-1.6c-0.4-0.7-0.6-1.5-0.6-2.3c0-1.5,0.5-2.6,1.5-3.5s2.4-1.3,4.1-1.3h2.8
		c0.4,0,0.6-0.1,0.8-0.3c0.2-0.2,0.3-0.4,0.3-0.8c0-0.8-0.3-1.4-0.8-1.8c-0.5-0.5-1.3-0.7-2.2-0.7c-0.6,0-1.2,0.1-1.6,0.4
		c-0.5,0.2-0.8,0.6-1.1,0.9c-0.3,0.4-0.4,0.8-0.4,1.3h-3.3c0.1-1,0.4-1.9,1-2.7c0.6-0.8,1.3-1.4,2.3-1.9s2.1-0.7,3.4-0.7
		c1.3,0,2.4,0.2,3.4,0.7c1,0.5,1.8,1.1,2.3,2c0.6,0.9,0.8,1.8,0.8,3v9.7h-3.6v-2.2c-0.3,0.8-0.9,1.4-1.7,1.8
		c-0.8,0.4-1.8,0.7-2.8,0.7C62.2,25.9,61.4,25.7,60.6,25.3z M66.7,22.1c0.6-0.7,1-1.7,1-2.8V19h-3.4c-0.8,0-1.4,0.2-1.9,0.6
		c-0.5,0.4-0.7,0.9-0.7,1.6c0,0.6,0.2,1,0.6,1.4c0.4,0.4,1,0.5,1.7,0.5C65.2,23.2,66.1,22.8,66.7,22.1z"/>
	<path class="st022" d="M78.2,25.6l-5.5-15.1h3.7l3.5,10.4l3.5-10.4h3.8l-4.6,12.7l-3,8.6h-3.5L78.2,25.6z"/>
	<path class="st022" d="M90.7,25.3c-0.9-0.4-1.7-1-2.2-1.8c-0.5-0.8-0.8-1.7-0.9-2.8H91c0.1,0.7,0.4,1.3,0.9,1.7c0.5,0.4,1.2,0.6,2,0.6
		c0.7,0,1.3-0.2,1.7-0.5c0.4-0.3,0.7-0.7,0.7-1.2c0-0.5-0.1-0.8-0.4-1.1s-0.6-0.4-1-0.5c-0.4-0.1-1-0.2-1.7-0.3
		c-1.1-0.2-2-0.4-2.6-0.6s-1.3-0.7-1.8-1.3c-0.5-0.6-0.7-1.5-0.7-2.7c0-0.9,0.2-1.7,0.7-2.3c0.5-0.7,1.1-1.2,1.9-1.6
		c0.8-0.4,1.7-0.6,2.7-0.6c1.2,0,2.2,0.2,3.1,0.6c0.9,0.4,1.6,1,2.1,1.7c0.5,0.7,0.8,1.6,0.9,2.6h-3.4c-0.1-0.7-0.4-1.2-0.9-1.6
		c-0.5-0.4-1.1-0.6-1.8-0.6s-1.2,0.1-1.6,0.4c-0.4,0.3-0.6,0.7-0.6,1.2c0,0.4,0.1,0.7,0.4,1c0.3,0.2,0.6,0.4,1,0.5
		c0.4,0.1,0.9,0.2,1.6,0.3c1.1,0.1,2,0.3,2.7,0.6c0.7,0.2,1.3,0.7,1.8,1.3c0.5,0.7,0.8,1.6,0.8,2.9c0,0.9-0.2,1.8-0.7,2.5
		c-0.5,0.7-1.2,1.3-2,1.6c-0.9,0.4-1.9,0.6-3,0.6C92.7,25.9,91.7,25.7,90.7,25.3z"/>
</g>
<path class="st022" d="M33.3,11.9c0-3.8-2.4-7.1-6-8.3l-9.9-3.2L7.4,3.5C3.8,4.6,1.3,8,1.3,11.7l0,8.4c0,3.8,2.4,7.1,6,8.3l9.9,3.2
	l9.9-3.1c3.6-1.1,6.1-4.5,6.1-8.2L33.3,11.9z M30.8,20.3c0,2.7-1.8,5.1-4.3,5.9L24,26.9c1.3-1.5,2-3.5,2-5.5l0-10.7
	c0-2-0.7-4-1.9-5.5L26.5,6c2.6,0.8,4.3,3.2,4.3,5.9L30.8,20.3z M21.1,5.8l-2.5-2l-0.1,24.4l2.6-1.9c1.5-1.2,2.4-3,2.5-4.9l0-10.7
	C23.5,8.7,22.6,6.9,21.1,5.8z M16,28.2l-2.5-1.9c-1.5-1.2-2.4-3-2.4-4.9l0-10.7c0-1.9,0.9-3.7,2.5-4.9l2.6-1.9L16,28.2z M8.1,5.9
	c-2.6,0.8-4.3,3.2-4.3,5.9l0,8.4c0,2.7,1.7,5.1,4.3,5.9l2.4,0.8c-1.3-1.5-2-3.5-2-5.5l0-10.7c0-2,0.7-4,2-5.5L8.1,5.9z"/>
</svg>
