<svg id="social-logo-twitter" width="32" height="32" viewBox="0 0 32 32" fill="none"><path fill-rule="evenodd" clip-rule="evenodd" d="M16 0C7.1634 0 0 7.16344 0 16C0 24.8366 7.1634 32 16 32C24.8366 32 32 24.8366 32 16C32 7.16344 24.8366 0 16 0ZM15.5544 13.5584L15.5208 13.0048C15.4201 11.5699 16.3042 10.2592 17.7032 9.75078C18.218 9.57 19.0909 9.5474 19.6617 9.70559C19.8856 9.77338 20.3108 9.99935 20.613 10.2027L21.1614 10.5756L21.7658 10.3835C22.1015 10.2818 22.5492 10.1123 22.7506 9.99935C22.9409 9.89766 23.1088 9.84117 23.1088 9.87507C23.1088 10.0671 22.6947 10.7225 22.3477 11.084C21.8777 11.5925 22.012 11.6377 22.9633 11.2987C23.534 11.1066 23.5452 11.1066 23.4333 11.3213C23.3662 11.4343 23.0192 11.8297 22.6499 12.1913C22.0232 12.8127 21.9896 12.8805 21.9896 13.4003C21.9896 14.2025 21.6091 15.8747 21.2286 16.7899C20.5235 18.5073 19.0126 20.2812 17.5017 21.1738C15.3753 22.4279 12.5438 22.7443 10.16 22.0099C9.3654 21.7613 8 21.1286 8 21.0156C8 20.9817 8.4141 20.9365 8.9177 20.9252C9.9697 20.9026 11.0218 20.6088 11.9171 20.0891L12.5214 19.7275L11.8275 19.4903C10.8427 19.1513 9.9585 18.3717 9.7347 17.6373C9.6676 17.4 9.6899 17.3887 10.3167 17.3887L10.9658 17.3774L10.4174 17.1175C9.7683 16.7899 9.1751 16.2362 8.8841 15.6713C8.6715 15.2645 8.4029 14.2364 8.4812 14.1573C8.5036 14.1234 8.7386 14.1912 9.0072 14.2816C9.7795 14.564 9.8802 14.4962 9.4325 14.0217C8.5932 13.163 8.3357 11.8862 8.7386 10.6773L8.9289 10.1349L9.6676 10.8694C11.1784 12.3495 12.9579 13.2308 14.9948 13.4906L15.5544 13.5584Z" fill="white"></path></svg>